<svg width="16" height="16" viewBox="0 0 16 16" fill="none" xmlns="http://www.w3.org/2000/svg">
<path d="M2.7 5.99673L4.1625 6.61548C4.3375 6.26548 4.51875 5.92798 4.70625 5.60298C4.89375 5.27798 5.1 4.95298 5.325 4.62798L4.275 4.42173L2.7 5.99673ZM5.3625 7.55298L7.5 9.67173C8.025 9.47173 8.5875 9.16548 9.1875 8.75298C9.7875 8.34048 10.35 7.87173 10.875 7.34673C11.75 6.47173 12.4344 5.49985 12.9281 4.4311C13.4219 3.36235 13.6375 2.37798 13.575 1.47798C12.675 1.41548 11.6875 1.6311 10.6125 2.12485C9.5375 2.6186 8.5625 3.30298 7.6875 4.17798C7.1625 4.70298 6.69375 5.26548 6.28125 5.86548C5.86875 6.46548 5.5625 7.02798 5.3625 7.55298ZM8.7 6.33423C8.7 6.33423 8.62813 6.26235 8.48438 6.1186C8.34063 5.97485 8.26875 5.6936 8.26875 5.27485C8.26875 4.8561 8.4125 4.50298 8.7 4.21548C8.9875 3.92798 9.34375 3.78423 9.76875 3.78423C10.1938 3.78423 10.55 3.92798 10.8375 4.21548C11.125 4.50298 11.2688 4.8561 11.2688 5.27485C11.2688 5.6936 11.125 6.04673 10.8375 6.33423C10.55 6.62173 10.1938 6.76548 9.76875 6.76548C9.34375 6.76548 8.9875 6.62173 8.7 6.33423ZM9.05625 12.353L10.6313 10.778L10.425 9.72798C10.1 9.95298 9.775 10.1561 9.45 10.3374C9.125 10.5186 8.7875 10.6967 8.4375 10.8717L9.05625 12.353ZM14.925 0.109228C15.1625 1.62173 15.0156 3.0936 14.4844 4.52485C13.9531 5.9561 13.0375 7.32173 11.7375 8.62173L12.1125 10.478C12.1625 10.728 12.15 10.9717 12.075 11.2092C12 11.4467 11.875 11.653 11.7 11.828L8.55 14.978L6.975 11.2842L3.76875 8.07798L0.075 6.50298L3.20625 3.35298C3.38125 3.17798 3.59063 3.05298 3.83438 2.97798C4.07812 2.90298 4.325 2.89048 4.575 2.94048L6.43125 3.31548C7.73125 2.01548 9.09375 1.09673 10.5188 0.559228C11.9438 0.0217276 13.4125 -0.128272 14.925 0.109228ZM1.40625 10.4592C1.84375 10.0217 2.37812 9.79985 3.00938 9.7936C3.64063 9.78735 4.175 10.003 4.6125 10.4405C5.05 10.878 5.26562 11.4124 5.25938 12.0436C5.25313 12.6749 5.03125 13.2092 4.59375 13.6467C4.28125 13.9592 3.75938 14.228 3.02813 14.453C2.29688 14.678 1.2875 14.878 0 15.053C0.175 13.7655 0.375 12.7561 0.6 12.0249C0.825 11.2936 1.09375 10.7717 1.40625 10.4592ZM2.475 11.5092C2.35 11.6342 2.225 11.8624 2.1 12.1936C1.975 12.5249 1.8875 12.8592 1.8375 13.1967C2.175 13.1467 2.50938 13.0624 2.84063 12.9436C3.17188 12.8249 3.4 12.703 3.525 12.578C3.675 12.428 3.75625 12.2467 3.76875 12.0342C3.78125 11.8217 3.7125 11.6405 3.5625 11.4905C3.4125 11.3405 3.23125 11.2686 3.01875 11.2749C2.80625 11.2811 2.625 11.3592 2.475 11.5092Z" fill="#94A3B8"/>
</svg>
