<svg width="14" height="14" viewBox="0 0 14 14" fill="none" xmlns="http://www.w3.org/2000/svg">
<path d="M3 10.5H6V7.5H3V10.5ZM7.5 10.5H10.5V7.5H7.5V10.5ZM3 6H6V3H3V6ZM7.5 6H10.5V3H7.5V6ZM1.5 13.5C1.0875 13.5 0.734375 13.3531 0.440625 13.0594C0.146875 12.7656 0 12.4125 0 12V1.5C0 1.0875 0.146875 0.734374 0.440625 0.440624C0.734375 0.146874 1.0875 -9.53674e-07 1.5 -9.53674e-07H12C12.4125 -9.53674e-07 12.7656 0.146874 13.0594 0.440624C13.3531 0.734374 13.5 1.0875 13.5 1.5V12C13.5 12.4125 13.3531 12.7656 13.0594 13.0594C12.7656 13.3531 12.4125 13.5 12 13.5H1.5ZM1.5 12H12V1.5H1.5V12Z" fill="#475569"/>
</svg>
