<svg width="12" height="6" viewBox="0 0 12 6" fill="none" xmlns="http://www.w3.org/2000/svg">
<path d="M4.99643 5.55151H2.7758C2.00783 5.55151 1.3532 5.28087 0.81192 4.73959C0.27064 4.19831 0 3.54369 0 2.77572C0 2.00775 0.27064 1.35312 0.81192 0.811841C1.3532 0.270561 2.00783 -7.9155e-05 2.7758 -7.9155e-05H4.99643V1.11024H2.7758C2.31316 1.11024 1.91993 1.27216 1.59608 1.596C1.27224 1.91985 1.11032 2.31308 1.11032 2.77572C1.11032 3.23835 1.27224 3.63159 1.59608 3.95543C1.91993 4.27927 2.31316 4.4412 2.7758 4.4412H4.99643V5.55151ZM3.33096 3.33088V2.22056H7.77223V3.33088H3.33096ZM6.10675 5.55151V4.4412H8.32739C8.79002 4.4412 9.18326 4.27927 9.5071 3.95543C9.83095 3.63159 9.99287 3.23835 9.99287 2.77572C9.99287 2.31308 9.83095 1.91985 9.5071 1.596C9.18326 1.27216 8.79002 1.11024 8.32739 1.11024H6.10675V-7.9155e-05H8.32739C9.09536 -7.9155e-05 9.74998 0.270561 10.2913 0.811841C10.8325 1.35312 11.1032 2.00775 11.1032 2.77572C11.1032 3.54369 10.8325 4.19831 10.2913 4.73959C9.74998 5.28087 9.09536 5.55151 8.32739 5.55151H6.10675Z" fill="#F1F5F9"/>
</svg>
